<?xml version="1.0" encoding="UTF-8" standalone="no" ?>
<!DOCTYPE svg PUBLIC "-//W3C//DTD SVG 1.1//EN" "http://www.w3.org/Graphics/SVG/1.1/DTD/svg11.dtd">
<svg xmlns="http://www.w3.org/2000/svg" xmlns:xlink="http://www.w3.org/1999/xlink" version="1.1" width="1080" height="1080" viewBox="0 0 1080 1080" xml:space="preserve">
<desc>Created with Fabric.js 5.2.4</desc>
<defs>
</defs>
<g transform="matrix(1 0 0 1 540 540)" id="584d0b30-58e5-46e0-be9d-206a393820a7"  >
<rect style="stroke: none; stroke-width: 1; stroke-dasharray: none; stroke-linecap: butt; stroke-dashoffset: 0; stroke-linejoin: miter; stroke-miterlimit: 4; fill: rgb(255,255,255); fill-rule: nonzero; opacity: 1; visibility: hidden;" vector-effect="non-scaling-stroke"  x="-540" y="-540" rx="0" ry="0" width="1080" height="1080" />
</g>
<g transform="matrix(1 0 0 1 540 540)" id="815e2c18-7d9d-4ec9-a6c8-d48ffa1bd9f2"  >
</g>
<g transform="matrix(1.97 0 0 1.97 538.1 538.1)"  >
<g style="" vector-effect="non-scaling-stroke"   >
		<g transform="matrix(3.4 0 0 3.4 0 0)" id="path865"  >
<circle style="stroke: rgb(222,106,11); stroke-width: 3.34699988; stroke-dasharray: none; stroke-linecap: butt; stroke-dashoffset: 0; stroke-linejoin: miter; stroke-miterlimit: 4; fill: rgb(255,255,250); fill-rule: nonzero; opacity: 1;" vector-effect="non-scaling-stroke"  cx="0" cy="0" r="77.5" />
</g>
		<g transform="matrix(3.4 0 0 3.4 -2.82 20.12)" id="path848"  >
<path style="stroke: none; stroke-width: 0.26458332; stroke-dasharray: none; stroke-linecap: butt; stroke-dashoffset: 0; stroke-linejoin: miter; stroke-miterlimit: 4; fill: rgb(237,91,38); fill-rule: nonzero; opacity: 1;" vector-effect="non-scaling-stroke"  transform=" translate(-75.54, -147.94)" d="M 69.764948 219.60424 C 69.946848 219.53084 70.24450800000001 219.53084 70.42640800000001 219.60424 C 70.60830800000001 219.67764 70.45950800000001 219.73769000000001 70.095678 219.73769000000001 C 69.73187800000001 219.73769000000001 69.583048 219.67769 69.764948 219.60424 z M 66.87106800000001 219.33414 C 67.06206800000001 219.25773999999998 67.29026800000001 219.26713999999998 67.37818800000001 219.35504 C 67.46608800000001 219.44294 67.30978800000001 219.50549 67.030928 219.494 C 66.72269800000001 219.4813 66.660008 219.4186 66.87106800000001 219.33415 z M 64.75440800000001 219.06956 C 64.94539800000001 218.99316 65.17360800000002 219.00256 65.26151800000001 219.09046 C 65.34941800000001 219.17836 65.19311800000001 219.24091 64.914258 219.22942 C 64.60602800000001 219.21672 64.543338 219.15402 64.754408 219.06957 z M 62.902318000000015 218.80498 C 63.09331800000002 218.72858 63.32151800000001 218.73798 63.409438000000016 218.82588 C 63.49733800000001 218.91378 63.34103800000002 218.97633000000002 63.06217800000002 218.96485 C 62.753948000000015 218.95215000000002 62.69125800000002 218.88945 62.902318000000015 218.805 z M 66.39151800000002 206.18984 C 66.39151800000002 206.11054000000001 67.19079800000002 204.93882 68.16769800000002 203.58601000000002 C 72.36563800000002 197.77269 73.76634800000002 194.94117000000003 74.98602800000002 189.80288000000002 C 76.20633800000002 184.66192 76.52904800000002 178.28048 75.77082800000002 174.2835 C 74.28416800000002 166.44647 69.27500800000003 158.06814 60.340228000000025 148.47426000000002 C 50.388808000000026 137.78874000000002 42.59231800000002 126.99798000000001 38.21141800000002 117.84680000000002 C 36.468658000000026 114.20637000000002 35.581838000000026 111.59613000000002 35.048278000000025 108.53648000000001 C 34.53564800000002 105.59682000000001 34.537358000000026 104.38002000000002 35.057278000000025 101.83029 C 36.337298000000025 95.55815100000001 40.38427800000002 91.662401 47.60843800000002 89.74815500000001 C 53.18718800000002 88.26990800000002 54.41788800000002 88.17272700000001 67.71400800000002 88.16053600000001 C 81.07120800000003 88.14828600000001 81.49757800000002 88.104466 81.69361800000001 86.723847 C 81.90623800000002 85.226387 77.66618800000002 82.026677 70.75671800000002 78.47043300000001 C 68.42837800000002 77.27206100000001 66.46384800000003 76.23597500000001 66.39108800000002 76.16801900000002 C 66.05140800000002 75.85077100000001 79.14625800000002 77.73809800000002 82.55881800000003 78.49823500000002 C 89.61909800000004 80.07088500000002 99.02708800000003 84.12664000000002 105.41714000000003 88.35237700000002 C 109.60591000000004 91.12241700000001 113.85952000000003 95.48178700000003 115.41082000000003 98.59455400000002 C 116.57148000000004 100.92346000000002 116.73543000000004 103.69408000000001 115.81810000000003 105.47733000000002 C 114.77973000000003 107.49586000000002 112.73518000000003 108.39171000000002 109.17443000000003 108.38832000000002 C 105.47491000000002 108.38532000000002 98.74170800000003 106.91187000000002 91.65879800000003 104.55665000000002 C 79.22159800000003 100.42102000000001 75.01159800000003 99.39697400000001 70.43900800000003 99.39513500000002 C 67.04204800000002 99.39383500000002 65.39064800000003 99.74566300000002 63.81817800000003 100.80596000000003 C 59.76034800000003 103.54211000000002 59.96340800000003 111.54233000000002 64.29294800000004 119.51056000000003 C 66.04324800000003 122.73187000000003 67.73785800000005 125.16593000000003 70.68242800000004 128.68810000000002 C 75.19065800000004 134.08067000000003 82.34474800000004 144.0423 85.08215800000005 148.73884 C 86.60699800000005 151.35499000000002 87.91401800000006 154.39433000000002 88.83688800000004 157.47009 C 90.15052800000005 161.84819 90.33630800000005 163.34527 90.33079800000004 169.50863 C 90.32579800000005 174.61435 90.26219800000004 175.43933 89.70622800000004 177.56069000000002 C 87.32875800000004 186.63151000000002 80.49869800000003 195.31729 68.17702800000004 204.93937000000003 C 67.19475800000004 205.70643 66.39108800000004 206.26914000000002 66.39108800000004 206.18984000000003 z" stroke-linecap="round" />
</g>
		<g transform="matrix(3.4 0 0 3.4 40.77 13.53)" id="path850"  >
<path style="stroke: none; stroke-width: 0.26458332; stroke-dasharray: none; stroke-linecap: butt; stroke-dashoffset: 0; stroke-linejoin: miter; stroke-miterlimit: 4; fill: rgb(245,145,32); fill-rule: nonzero; opacity: 1;" vector-effect="non-scaling-stroke"  transform=" translate(-88.36, -146)" d="M 90.352362 187.25462 C 90.48974199999999 186.96357999999998 91.223712 185.41576999999998 91.983392 183.81503999999998 C 95.19366199999999 177.05061999999998 95.89424199999999 175.09964 96.91823199999999 170.07227999999998 C 97.55859199999999 166.92838999999998 97.62411199999998 166.04505999999998 97.64552199999999 160.26711999999998 C 97.66832199999999 154.11115999999998 97.64652199999999 153.83757999999997 96.94152199999999 151.31414999999998 C 95.69085199999999 146.83944 93.091152 142.06489 89.498932 137.64524999999998 C 88.611852 136.55383999999998 85.792997 133.51774999999998 83.234827 130.89836999999997 C 74.78661699999999 122.24804999999998 72.313397 118.79374999999997 71.06038699999999 113.89453999999998 C 70.111387 110.18396999999997 70.53104699999999 108.26552999999998 72.734287 106.24262999999998 C 74.288187 104.81591999999998 75.533737 104.48832999999998 78.88215699999999 104.62570999999998 C 81.94862699999999 104.75150999999998 83.078857 105.21022999999998 86.424247 107.68672999999998 C 94.924702 113.97938999999998 102.97554 127.01538999999998 105.51532 138.59919 C 106.35307 142.42011 106.34787 149.36348999999998 105.50362 154.28978999999998 C 104.18068 162.00883 102.16284999999999 168.46802999999997 99.420952 173.76086999999998 C 97.870692 176.75342999999998 92.384182 185.20947999999999 90.923352 186.85774999999998 C 90.47195199999999 187.36706999999998 90.215032 187.54565999999997 90.352412 187.25462 z" stroke-linecap="round" />
</g>
		<g transform="matrix(3.4 0 0 3.4 109.69 -39.74)" id="path852"  >
<path style="stroke: none; stroke-width: 0.26458332; stroke-dasharray: none; stroke-linecap: butt; stroke-dashoffset: 0; stroke-linejoin: miter; stroke-miterlimit: 4; fill: rgb(242,231,19); fill-rule: nonzero; opacity: 1;" vector-effect="non-scaling-stroke"  transform=" translate(-108.64, -130.32)" d="M 110.72363 148.31362 C 111.21353 146.60429 111.74249 141.48784999999998 111.74257 138.45789 C 111.74264 135.80843 111.61478 134.53207999999998 111.18596 132.90164 C 110.40880999999999 129.94677 107.83068999999999 124.96877999999998 105.29373 121.52455999999998 C 101.55725 116.45182999999997 100.73487 114.64388999999998 101.49515 113.17366999999999 C 101.73881 112.70248999999998 102.31209 112.19034999999998 102.84519999999999 111.96759999999999 C 103.70970999999999 111.60637999999999 103.86595999999999 111.62359 105.17857 112.22451999999998 C 107.84718 113.44624999999998 110.41702 115.39886999999999 111.62755999999999 117.12460999999999 C 113.14103999999999 119.28223999999999 114.93569999999998 123.17670999999999 115.54497999999998 125.62559999999999 C 116.20174999999998 128.26533999999998 116.19779999999999 133.25005 115.53697999999999 135.67977 C 114.86718999999998 138.14258999999998 112.24199999999999 145.88057999999998 111.52009999999999 147.51987 C 110.90290999999999 148.92141 110.40807999999998 149.41452 110.72359999999999 148.31362 z" stroke-linecap="round" />
</g>
</g>
</g>
</svg>