<?xml version="1.0" encoding="UTF-8" standalone="no" ?>
<!DOCTYPE svg PUBLIC "-//W3C//DTD SVG 1.1//EN" "http://www.w3.org/Graphics/SVG/1.1/DTD/svg11.dtd">
<svg xmlns="http://www.w3.org/2000/svg" xmlns:xlink="http://www.w3.org/1999/xlink" version="1.1" width="1080" height="1080" viewBox="0 0 1080 1080" xml:space="preserve">
<desc>Created with Fabric.js 5.2.4</desc>
<defs>
</defs>
<g transform="matrix(1 0 0 1 540 540)" id="4ceabb39-75ef-4c49-8f83-419ea0720b82"  >
<rect style="stroke: none; stroke-width: 1; stroke-dasharray: none; stroke-linecap: butt; stroke-dashoffset: 0; stroke-linejoin: miter; stroke-miterlimit: 4; fill: rgb(255,255,255); fill-rule: nonzero; opacity: 1; visibility: hidden;" vector-effect="non-scaling-stroke"  x="-540" y="-540" rx="0" ry="0" width="1080" height="1080" />
</g>
<g transform="matrix(1 0 0 1 540 540)" id="face46c4-b1f6-4d73-a9ce-7c078e75a936"  >
</g>
<g transform="matrix(1.51 0 0 1.51 540 540)"  >
<g style="" vector-effect="non-scaling-stroke"   >
		<g transform="matrix(25 0 0 25 0 0)"  >
<circle style="stroke: none; stroke-width: 1; stroke-dasharray: none; stroke-linecap: butt; stroke-dashoffset: 0; stroke-linejoin: miter; stroke-miterlimit: 4; fill: rgb(23,148,212); fill-rule: nonzero; opacity: 1;" vector-effect="non-scaling-stroke"  cx="0" cy="0" r="14" />
</g>
		<g transform="matrix(25 0 0 25 25 -200)"  >
<path style="stroke: none; stroke-width: 1; stroke-dasharray: none; stroke-linecap: butt; stroke-dashoffset: 0; stroke-linejoin: miter; stroke-miterlimit: 4; fill: rgb(255,255,255); fill-rule: nonzero; opacity: 1;" vector-effect="non-scaling-stroke"  transform=" translate(-17, -8)" d="M 18 7 L 16 7 L 16 9 L 18 9 L 18 7 Z" stroke-linecap="round" />
</g>
		<g transform="matrix(25 0 0 25 -125 -125)"  >
<path style="stroke: none; stroke-width: 1; stroke-dasharray: none; stroke-linecap: butt; stroke-dashoffset: 0; stroke-linejoin: miter; stroke-miterlimit: 4; fill: rgb(255,255,255); fill-rule: nonzero; opacity: 1;" vector-effect="non-scaling-stroke"  transform=" translate(-11, -11)" d="M 10 10 L 12 10 L 12 12 L 10 12 L 10 10 Z" stroke-linecap="round" />
</g>
		<g transform="matrix(25 0 0 25 25 37.5)"  >
<path style="stroke: none; stroke-width: 1; stroke-dasharray: none; stroke-linecap: butt; stroke-dashoffset: 0; stroke-linejoin: miter; stroke-miterlimit: 4; fill: rgb(255,255,255); fill-rule: nonzero; opacity: 1;" vector-effect="non-scaling-stroke"  transform=" translate(-17, -17.5)" d="M 6.00155 16.9414 C 6.17244 19.8427 7.90027 24 14 24 C 20.8 24 23.8333 19 24.5 16.5 C 25.3333 16.5 27.2 16 28 14 C 27.5 13.5 25.5 13.5 24.5 14 C 24.5 13.2 24 11.5 23 11 C 22.3333 11.6667 21.3 13.4 22.5 15 C 22 16 20.6667 16 20 16 L 6.9429 16 C 6.41342 16 5.97041 16.4128 6.00155 16.9414 Z" stroke-linecap="round" />
</g>
		<g transform="matrix(25 0 0 25 -200 -50)"  >
<path style="stroke: none; stroke-width: 1; stroke-dasharray: none; stroke-linecap: butt; stroke-dashoffset: 0; stroke-linejoin: miter; stroke-miterlimit: 4; fill: rgb(255,255,255); fill-rule: nonzero; opacity: 1;" vector-effect="non-scaling-stroke"  transform=" translate(-8, -14)" d="M 9 13 L 7 13 L 7 15 L 9 15 L 9 13 Z" stroke-linecap="round" />
</g>
		<g transform="matrix(25 0 0 25 -125 -50)"  >
<path style="stroke: none; stroke-width: 1; stroke-dasharray: none; stroke-linecap: butt; stroke-dashoffset: 0; stroke-linejoin: miter; stroke-miterlimit: 4; fill: rgb(255,255,255); fill-rule: nonzero; opacity: 1;" vector-effect="non-scaling-stroke"  transform=" translate(-11, -14)" d="M 10 13 L 12 13 L 12 15 L 10 15 L 10 13 Z" stroke-linecap="round" />
</g>
		<g transform="matrix(25 0 0 25 -50 -50)"  >
<path style="stroke: none; stroke-width: 1; stroke-dasharray: none; stroke-linecap: butt; stroke-dashoffset: 0; stroke-linejoin: miter; stroke-miterlimit: 4; fill: rgb(255,255,255); fill-rule: nonzero; opacity: 1;" vector-effect="non-scaling-stroke"  transform=" translate(-14, -14)" d="M 15 13 L 13 13 L 13 15 L 15 15 L 15 13 Z" stroke-linecap="round" />
</g>
		<g transform="matrix(25 0 0 25 25 -50)"  >
<path style="stroke: none; stroke-width: 1; stroke-dasharray: none; stroke-linecap: butt; stroke-dashoffset: 0; stroke-linejoin: miter; stroke-miterlimit: 4; fill: rgb(255,255,255); fill-rule: nonzero; opacity: 1;" vector-effect="non-scaling-stroke"  transform=" translate(-17, -14)" d="M 16 13 L 18 13 L 18 15 L 16 15 L 16 13 Z" stroke-linecap="round" />
</g>
		<g transform="matrix(25 0 0 25 100 -50)"  >
<path style="stroke: none; stroke-width: 1; stroke-dasharray: none; stroke-linecap: butt; stroke-dashoffset: 0; stroke-linejoin: miter; stroke-miterlimit: 4; fill: rgb(255,255,255); fill-rule: nonzero; opacity: 1;" vector-effect="non-scaling-stroke"  transform=" translate(-20, -14)" d="M 21 13 L 19 13 L 19 15 L 21 15 L 21 13 Z" stroke-linecap="round" />
</g>
		<g transform="matrix(25 0 0 25 -50 -125)"  >
<path style="stroke: none; stroke-width: 1; stroke-dasharray: none; stroke-linecap: butt; stroke-dashoffset: 0; stroke-linejoin: miter; stroke-miterlimit: 4; fill: rgb(255,255,255); fill-rule: nonzero; opacity: 1;" vector-effect="non-scaling-stroke"  transform=" translate(-14, -11)" d="M 15 10 L 13 10 L 13 12 L 15 12 L 15 10 Z" stroke-linecap="round" />
</g>
		<g transform="matrix(25 0 0 25 25 -125)"  >
<path style="stroke: none; stroke-width: 1; stroke-dasharray: none; stroke-linecap: butt; stroke-dashoffset: 0; stroke-linejoin: miter; stroke-miterlimit: 4; fill: rgb(255,255,255); fill-rule: nonzero; opacity: 1;" vector-effect="non-scaling-stroke"  transform=" translate(-17, -11)" d="M 16 10 L 18 10 L 18 12 L 16 12 L 16 10 Z" stroke-linecap="round" />
</g>
</g>
</g>
</svg>