<?xml version="1.0" encoding="UTF-8" standalone="no" ?>
<!DOCTYPE svg PUBLIC "-//W3C//DTD SVG 1.1//EN" "http://www.w3.org/Graphics/SVG/1.1/DTD/svg11.dtd">
<svg xmlns="http://www.w3.org/2000/svg" xmlns:xlink="http://www.w3.org/1999/xlink" version="1.1" width="1080" height="1080" viewBox="0 0 1080 1080" xml:space="preserve">
<desc>Created with Fabric.js 5.2.4</desc>
<defs>
</defs>
<g transform="matrix(1 0 0 1 540 540)" id="cee58fb5-a239-48c7-ac61-91009c6e1dde"  >
<rect style="stroke: none; stroke-width: 1; stroke-dasharray: none; stroke-linecap: butt; stroke-dashoffset: 0; stroke-linejoin: miter; stroke-miterlimit: 4; fill: rgb(255,255,255); fill-rule: nonzero; opacity: 1; visibility: hidden;" vector-effect="non-scaling-stroke"  x="-540" y="-540" rx="0" ry="0" width="1080" height="1080" />
</g>
<g transform="matrix(1 0 0 1 540 540)" id="73677993-887e-4a28-aade-9b38e6af2cd8"  >
</g>
<g transform="matrix(1.52 0 0 1.52 540 540)"  >
<g style="" vector-effect="non-scaling-stroke"   >
		<g transform="matrix(25 0 0 25 0 0)"  >
<circle style="stroke: none; stroke-width: 1; stroke-dasharray: none; stroke-linecap: butt; stroke-dashoffset: 0; stroke-linejoin: miter; stroke-miterlimit: 4; fill: rgb(7,105,173); fill-rule: nonzero; opacity: 1;" vector-effect="non-scaling-stroke"  cx="0" cy="0" r="14" />
</g>
		<g transform="matrix(25 0 0 25 132.7 -146)"  >
<path style="stroke: none; stroke-width: 1; stroke-dasharray: none; stroke-linecap: butt; stroke-dashoffset: 0; stroke-linejoin: miter; stroke-miterlimit: 4; fill: rgb(120,207,245); fill-rule: nonzero; opacity: 1;" vector-effect="non-scaling-stroke"  transform=" translate(-21.31, -10.16)" d="M 22.6573 13.4211 C 23.9143 13.4211 25.0652 13.0019 25.955 12.3066 C 25.0312 13.5238 23.5007 14.3196 21.7689 14.3196 C 18.9477 14.3196 16.6607 12.2077 16.6607 9.60256 C 16.6607 8.1581 17.3638 6.86527 18.4712 6 C 17.8901 6.76568 17.5491 7.6981 17.5491 8.70407 C 17.5491 11.3092 19.8361 13.4211 22.6573 13.4211 Z" stroke-linecap="round" />
</g>
		<g transform="matrix(25 0 0 25 71.01 -65.63)"  >
<path style="stroke: none; stroke-width: 1; stroke-dasharray: none; stroke-linecap: butt; stroke-dashoffset: 0; stroke-linejoin: miter; stroke-miterlimit: 4; fill: rgb(120,207,245); fill-rule: nonzero; opacity: 1;" vector-effect="non-scaling-stroke"  transform=" translate(-18.84, -13.37)" d="M 25.9064 16.6586 C 24.5512 17.7216 22.7968 18.3628 20.8805 18.3628 C 16.5874 18.3628 13.1071 15.1447 13.1071 11.1749 C 13.1071 9.63522 13.6307 8.20859 14.5221 7.03894 C 12.8413 8.35742 11.7745 10.3248 11.7745 12.5226 C 11.7745 16.4924 15.2548 19.7106 19.5479 19.7106 C 22.176 19.7106 24.4994 18.5047 25.9064 16.6586 Z" stroke-linecap="round" />
</g>
		<g transform="matrix(25 0 0 25 0 34.6)"  >
<path style="stroke: none; stroke-width: 1; stroke-dasharray: none; stroke-linecap: butt; stroke-dashoffset: 0; stroke-linejoin: miter; stroke-miterlimit: 4; fill: rgb(120,207,245); fill-rule: nonzero; opacity: 1;" vector-effect="non-scaling-stroke"  transform=" translate(-16, -17.38)" d="M 26 20.7701 C 24.0689 22.6129 21.3937 23.7538 18.4375 23.7538 C 12.5497 23.7538 7.77678 19.2283 7.77678 13.6458 C 7.77678 11.8768 8.25603 10.214 9.09813 8.76767 C 7.18322 10.595 6 13.1125 6 15.892 C 6 21.4745 10.7729 26 16.6607 26 C 20.6827 26 24.1846 23.8881 26 20.7701 Z" stroke-linecap="round" />
</g>
</g>
</g>
</svg>