<?xml version="1.0" encoding="UTF-8" standalone="no" ?>
<!DOCTYPE svg PUBLIC "-//W3C//DTD SVG 1.1//EN" "http://www.w3.org/Graphics/SVG/1.1/DTD/svg11.dtd">
<svg xmlns="http://www.w3.org/2000/svg" xmlns:xlink="http://www.w3.org/1999/xlink" version="1.1" width="1080" height="1080" viewBox="0 0 1080 1080" xml:space="preserve">
<desc>Created with Fabric.js 5.2.4</desc>
<defs>
</defs>
<g transform="matrix(1 0 0 1 540 540)" id="51ebd666-d019-4b4b-a9ac-03c5c7d066ee"  >
<rect style="stroke: none; stroke-width: 1; stroke-dasharray: none; stroke-linecap: butt; stroke-dashoffset: 0; stroke-linejoin: miter; stroke-miterlimit: 4; fill: rgb(255,255,255); fill-rule: nonzero; opacity: 1; visibility: hidden;" vector-effect="non-scaling-stroke"  x="-540" y="-540" rx="0" ry="0" width="1080" height="1080" />
</g>
<g transform="matrix(1 0 0 1 540 540)" id="ba9a6269-eee3-4dfc-999b-aa2a62a76d87"  >
</g>
<g transform="matrix(1.51 0 0 1.51 540 540)"  >
<g style="" vector-effect="non-scaling-stroke"   >
		<g transform="matrix(25 0 0 25 0 0)"  >
<circle style="stroke: none; stroke-width: 1; stroke-dasharray: none; stroke-linecap: butt; stroke-dashoffset: 0; stroke-linejoin: miter; stroke-miterlimit: 4; fill: rgb(136,146,191); fill-rule: nonzero; opacity: 1;" vector-effect="non-scaling-stroke"  cx="0" cy="0" r="14" />
</g>
		<g transform="matrix(25 0 0 25 1.63 -31.39)"  >
<path style="stroke: none; stroke-width: 1; stroke-dasharray: none; stroke-linecap: butt; stroke-dashoffset: 0; stroke-linejoin: miter; stroke-miterlimit: 4; fill: rgb(255,255,255); fill-rule: nonzero; opacity: 1;" vector-effect="non-scaling-stroke"  transform=" translate(-16.07, -14.74)" d="M 14.4392 10 L 16.1192 10 L 15.6444 12.5242 L 17.154 12.5242 C 17.9819 12.5419 18.5986 12.7269 19.0045 13.0793 C 19.4184 13.4316 19.5402 14.1014 19.3698 15.0881 L 18.5541 19.4889 L 16.8497 19.4889 L 17.6288 15.2863 C 17.7099 14.8457 17.6856 14.533 17.5558 14.348 C 17.426 14.163 17.146 14.0705 16.7158 14.0705 L 15.3644 14.0573 L 14.3661 19.4889 L 12.6861 19.4889 L 14.4392 10 Z" stroke-linecap="round" />
</g>
		<g transform="matrix(25 0 0 25 -180.41 31.55)"  >
<path style="stroke: none; stroke-width: 1; stroke-dasharray: none; stroke-linecap: butt; stroke-dashoffset: 0; stroke-linejoin: miter; stroke-miterlimit: 4; fill: rgb(255,255,255); fill-rule: evenodd; opacity: 1;" vector-effect="non-scaling-stroke"  transform=" translate(-8.78, -17.26)" d="M 6.74092 12.5243 L 10.0036 12.5243 C 10.9612 12.533 11.6552 12.8327 12.0854 13.4229 C 12.5156 14.0132 12.6576 14.8193 12.5115 15.8414 C 12.4548 16.3085 12.3289 16.7665 12.1341 17.2159 C 11.9474 17.6652 11.6878 18.0704 11.355 18.4317 C 10.9491 18.8898 10.5149 19.1805 10.0523 19.304 C 9.58969 19.4274 9.11076 19.489 8.61575 19.489 L 7.15484 19.489 L 6.69222 22 L 5 22 L 6.74092 12.5243 Z M 7.43485 17.9956 L 8.16287 14.0441 L 8.40879 14.0441 C 8.49815 14.0441 8.5914 14.0396 8.6888 14.0309 C 9.33817 14.0221 9.87774 14.0882 10.308 14.2291 C 10.7462 14.37 10.8923 14.9031 10.7462 15.8282 C 10.5678 16.9296 10.2186 17.5727 9.69926 17.7577 C 9.1799 17.934 8.53053 18.0176 7.75138 18.0088 L 7.58094 18.0088 C 7.53224 18.0088 7.48355 18.0043 7.43485 17.9956 Z" stroke-linecap="round" />
</g>
		<g transform="matrix(25 0 0 25 180.41 31.55)"  >
<path style="stroke: none; stroke-width: 1; stroke-dasharray: none; stroke-linecap: butt; stroke-dashoffset: 0; stroke-linejoin: miter; stroke-miterlimit: 4; fill: rgb(255,255,255); fill-rule: evenodd; opacity: 1;" vector-effect="non-scaling-stroke"  transform=" translate(-23.22, -17.26)" d="M 24.4365 12.5243 L 21.1738 12.5243 L 19.4329 22 L 21.1251 22 L 21.5878 19.489 L 23.0487 19.489 C 23.5437 19.489 24.0226 19.4274 24.4852 19.304 C 24.9479 19.1805 25.382 18.8898 25.7879 18.4317 C 26.1207 18.0704 26.3803 17.6652 26.567 17.2159 C 26.7618 16.7665 26.8877 16.3085 26.9444 15.8414 C 27.0905 14.8193 26.9486 14.0132 26.5183 13.4229 C 26.0881 12.8327 25.3942 12.533 24.4365 12.5243 Z M 22.5958 14.0441 L 21.8678 17.9956 C 21.9165 18.0043 21.9652 18.0088 22.0139 18.0088 L 22.1843 18.0088 C 22.9635 18.0176 23.6128 17.934 24.1322 17.7577 C 24.6515 17.5727 25.0007 16.9296 25.1792 15.8282 C 25.3253 14.9031 25.1792 14.37 24.7409 14.2291 C 24.3107 14.0882 23.7711 14.0221 23.1217 14.0309 C 23.0243 14.0396 22.9311 14.0441 22.8417 14.0441 L 22.5958 14.0441 Z" stroke-linecap="round" />
</g>
</g>
</g>
</svg>